<?xml version="1.0" encoding="UTF-8" standalone="no"?>
<!-- Created with Inkscape (http://www.inkscape.org/) -->

<svg
   width="200"
   height="200"
   viewBox="0 0 52.916665 52.916668"
   version="1.1"
   id="svg5"
   xmlns="http://www.w3.org/2000/svg"
   xmlns:svg="http://www.w3.org/2000/svg">
  <defs
     id="defs2">
    <rect
       x="43.133514"
       y="59.043416"
       width="69.650018"
       height="88.741901"
       id="rect23916" />
    <pattern
       patternUnits="userSpaceOnUse"
       width="37.781249"
       height="70.031249"
       patternTransform="translate(99.730514,44.558547)"
       id="pattern15158">
      <text
         xml:space="preserve"
         style="font-style:normal;font-variant:normal;font-weight:normal;font-stretch:normal;font-size:96px;line-height:1.25;font-family:'Segoe UI';-inkscape-font-specification:'Segoe UI';fill:#000000;fill-opacity:1;stroke:none;stroke-width:0.999999"
         x="-13.03125"
         y="70.03125"
         id="text2498"><tspan
           style="font-style:normal;font-variant:normal;font-weight:normal;font-stretch:normal;font-size:96px;font-family:'Segoe UI';-inkscape-font-specification:'Segoe UI';stroke-width:0.999999"
           x="-13.03125"
           y="70.03125"
           id="tspan22788">1</tspan></text>
    </pattern>
  </defs>
  <g
     id="layer1">
    <g
       aria-label="2"
       id="text87372"
       style="font-size:10.5833px;line-height:1.25;stroke-width:0.264583"
       transform="matrix(6.8224203,0,0,6.8224203,-154.08185,-154.09831)">
      <g
         aria-label="2"
         id="text131889"
         style="font-size:3.72302px;font-family:Tahoma;-inkscape-font-specification:Tahoma;fill:#ffffff;fill-opacity:1;stroke:#000000;stroke-width:0.0545842;stroke-miterlimit:4;stroke-dasharray:none;stroke-opacity:1"
         transform="matrix(2.6853116,0,0,2.6853116,-37.479877,-50.785411)">
        <path
           d="M 24.647321,30.149427 H 22.976689 V 29.76949 q 0.17997,-0.17088 0.339943,-0.327218 0.159974,-0.156338 0.312676,-0.325401 0.309039,-0.339943 0.421748,-0.543546 0.112708,-0.20542 0.112708,-0.423566 0,-0.112709 -0.03636,-0.198149 -0.03454,-0.08544 -0.09635,-0.141795 -0.06363,-0.05454 -0.147248,-0.0818 -0.08362,-0.02727 -0.183606,-0.02727 -0.09635,0 -0.196331,0.02545 -0.09817,0.02363 -0.18906,0.05999 -0.07635,0.0309 -0.147248,0.07453 -0.0709,0.04363 -0.114526,0.07453 h -0.02 v -0.38539 q 0.112708,-0.05635 0.312675,-0.109073 0.201785,-0.05454 0.381755,-0.05454 0.378119,0 0.592629,0.201785 0.21451,0.199967 0.21451,0.543546 0,0.158156 -0.03817,0.292679 -0.03636,0.134523 -0.101802,0.24905 -0.06726,0.118162 -0.161791,0.234506 -0.09453,0.116344 -0.199967,0.229053 -0.170881,0.185424 -0.381755,0.385391 -0.209056,0.199967 -0.33449,0.316311 h 1.330689 z"
           id="path135531"
           style="fill:#ffffff;fill-opacity:1;stroke:#000000;stroke-width:0.0545842;stroke-miterlimit:4;stroke-dasharray:none;stroke-opacity:1" />
      </g>
    </g>
  </g>
</svg>
